<?xml version="1.0" standalone="no"?>
<!DOCTYPE svg PUBLIC "-//W3C//DTD SVG 1.1//EN" "http://www.w3.org/Graphics/SVG/1.1/DTD/svg11.dtd" >
<svg xmlns="http://www.w3.org/2000/svg" xmlns:xlink="http://www.w3.org/1999/xlink" version="1.1">
<metadata>
Created by FontForge 20170731 at Sun Feb 21 11:11:06 2016
 By Aleksey,,,
</metadata>
<defs>
<font id="ClassiqueSaigon" horiz-adv-x="649" >
  <font-face 
    font-family="ClassiqueSaigon"
    font-weight="250"
    font-stretch="normal"
    units-per-em="1000"
    panose-1="0 0 0 0 0 0 0 0 0 0"
    ascent="750"
    descent="-250"
    x-height="497"
    cap-height="498"
    bbox="-137 -178 989 747"
    underline-thickness="50"
    underline-position="-150"
    unicode-range="U+000D-02D8"
  />
<missing-glyph horiz-adv-x="290" 
 />
    <glyph glyph-name=".notdef" horiz-adv-x="290" 
 />
    <glyph glyph-name=".null" horiz-adv-x="0" 
 />
    <glyph glyph-name="nonmarkingreturn" unicode="&#xd;" horiz-adv-x="290" 
 />
    <glyph glyph-name="NULL" horiz-adv-x="0" 
 />
    <glyph glyph-name="NULL" horiz-adv-x="0" 
 />
    <glyph glyph-name="space" unicode=" " horiz-adv-x="290" 
 />
    <glyph glyph-name="exclam" unicode="!" horiz-adv-x="184" 
d="M91 138q-28 0 -49 -19.5t-21 -47.5q-1 -15 4 -27.5t14 -22.5t21.5 -15.5t27.5 -5.5h3q28 0 47.5 19.5t21.5 47.5q0 29 -19.5 49t-47.5 22h-2zM141 166h-103v332h103v-332z" />
    <glyph glyph-name="quotedbl" unicode="&#x22;" horiz-adv-x="174" 
d="M140 392h-42v145h42v-145v0zM76 393h-42v145h42v-145z" />
    <glyph glyph-name="numbersign" unicode="#" horiz-adv-x="460" 
d="M115 3l-39 14l146 476l39 -12l-146 -478v0zM270 3l-39 14l148 476l39 -12l-148 -478v0zM439 290h-374v41h374v-41v0zM397 165h-374v41h374v-41v0z" />
    <glyph glyph-name="dollar" unicode="$" horiz-adv-x="384" 
d="M361 162q0 -32 -12 -60t-32 -49.5t-48 -35t-59 -14.5v-1v-172h-42v172v1h-130v136h130v44q-31 3 -57.5 16t-46 34.5t-31 49t-11.5 59.5q0 31 11.5 59t31 49t46 34.5t57.5 15.5v6v156h42v-156v-5h137v-136h-137v-46q31 -2 59 -14.5t48 -33.5t32 -49t12 -60zM158 342
q0 -10 10 -18v37q-10 -7 -10 -19zM210 141q6 2 10.5 7.5t4.5 13.5q0 6 -4.5 11.5t-10.5 7.5v-40z" />
    <glyph glyph-name="percent" unicode="%" horiz-adv-x="333" 
d="M325 519l-273 -566l-37 19l273 566zM89 358q-29 0 -49 20t-20 49t20 49t49 20q28 0 48.5 -20t20.5 -49t-20.5 -49t-48.5 -20zM89 452q-11 0 -18 -7t-7 -18t7 -18.5t18 -7.5t18.5 7.5t7.5 18.5t-7.5 18t-18.5 7zM244 138q29 0 49 -20t20 -49t-20 -49.5t-49 -20.5t-49 20.5
t-20 49.5t20 49t49 20zM244 43q11 0 18 7.5t7 18.5t-7 18t-18 7t-18 -7t-7 -18t7 -18.5t18 -7.5z" />
    <glyph glyph-name="ampersand" unicode="&#x26;" horiz-adv-x="416" 
d="M393 229h-28q4 -12 5.5 -25t1.5 -26q0 -37 -14 -69.5t-38 -56.5t-56.5 -37.5t-69.5 -13.5q-36 0 -68 13.5t-56 37.5t-37.5 56.5t-13.5 69.5q0 45 21.5 84t56.5 62q-7 14 -11.5 29.5t-4.5 32.5q0 24 9 44.5t24.5 35.5t36 24t43.5 9t43 -8t35.5 -22t25 -33t12.5 -40h-104
v-42v-21v-104h-25q-18 -5 -29 -19.5t-11 -31.5q0 -24 16.5 -39.5t36.5 -15.5q23 0 39.5 15.5t16.5 39.5q0 10 -2 14v141h50h95v-104z" />
    <glyph glyph-name="quotesingle" unicode="'" horiz-adv-x="124" 
d="M83 386h-42v145h42v-145v0z" />
    <glyph glyph-name="parenleft" unicode="(" horiz-adv-x="91" 
d="M103 523h-42v-540h42v-42h-42h-21h-21v624h21h21h42v-42v0z" />
    <glyph glyph-name="parenright" unicode=")" horiz-adv-x="94" 
d="M-11 521v42h42h21h21v-624h-21h-21h-42v42h42v540h-42v0z" />
    <glyph glyph-name="asterisk" unicode="*" horiz-adv-x="282" 
d="M156 365h-41v271h41v-271v0zM41 402l-23 33l215 164l25 -33l-217 -164v0zM230 402l-212 164l23 33l215 -164l-26 -33v0z" />
    <glyph glyph-name="plus" unicode="+" horiz-adv-x="342" 
d="M193 110h-41v271h41v-271v0zM307 224h-271v41h271v-41v0z" />
    <glyph glyph-name="comma" unicode="," horiz-adv-x="168" 
d="M41 87h84v-83l-42 -62h-42l21 62h-21v83v0z" />
    <glyph glyph-name="hyphen" unicode="-" horiz-adv-x="375" 
d="M323 241h-271v42h271v-42v0z" />
    <glyph glyph-name="period" unicode="." horiz-adv-x="217" 
d="M171 64q0 -26 -18 -44t-44 -18t-44 18t-18 44t18 44t44 18t44 -18t18 -44z" />
    <glyph glyph-name="slash" unicode="/" horiz-adv-x="546" 
d="M111 -132l-37 18l361 748l37 -18l-361 -748v0z" />
    <glyph glyph-name="zero" unicode="0" horiz-adv-x="424" 
d="M265 502q24 0 45 -9t36.5 -24.5t24.5 -36.5t9 -45v-268q0 -24 -9 -45t-24.5 -36.5t-36.5 -24.5t-45 -9h-102q-24 0 -45 9t-36.5 24.5t-24.5 36.5t-9 45v268q0 24 9 45t24.5 36.5t36.5 24.5t45 9h102zM235 336q0 9 -6 15t-15 6t-15 -6t-6 -15v-166q0 -9 6 -15t15 -6t15 6
t6 15v166z" />
    <glyph glyph-name="one" unicode="1" horiz-adv-x="279" 
d="M130 498h99v-498h-125v334l-37 -85l-39 16l99 227l3 6v0z" />
    <glyph glyph-name="two" unicode="2" horiz-adv-x="415" 
d="M369 2h-325v124q0 28 10.5 50t26.5 40t36 32t38 26q38 24 60.5 43t22.5 45q-4 2 -11.5 4.5t-21.5 2.5q-12 0 -20 -2.5t-10 -4.5v-65h-131v65q0 33 15 62t45 46q20 16 46.5 23t54.5 7q30 0 57 -7t47 -23q30 -17 45 -46t15 -62q0 -40 -14 -70.5t-35.5 -54.5t-46.5 -42
t-47 -32q-8 -7 -21.5 -15t-22.5 -15h187v-131z" />
    <glyph glyph-name="three" unicode="3" horiz-adv-x="381" 
d="M227 1h-187v124h187v63q0 15 -5 20h-120v125h42q5 1 13 5t17 9.5t17.5 12t14.5 12.5v3h-166v124h187q19 0 37.5 -7.5t33.5 -23t24 -39t9 -54.5v-21q0 -11 -4 -24.5t-19 -30.5q19 -18 31 -45.5t12 -65.5v-63q0 -23 -5 -40.5t-13 -30.5t-17 -22t-18 -15q-20 -12 -40 -14
t-31 -2z" />
    <glyph glyph-name="four" unicode="4" horiz-adv-x="412" 
d="M247 497h124v-270v-125v-103h-124v103h-208v109v16v12l208 258v0zM189 227h58v72z" />
    <glyph glyph-name="five" unicode="5" horiz-adv-x="386" 
d="M191 1q-30 0 -57 11.5t-46.5 31t-31 46t-11.5 56.5h128q0 -8 4.5 -14t13.5 -6t13.5 6t4.5 14v63q0 8 -4.5 14.5t-13.5 6.5t-13.5 -6.5t-4.5 -14.5h-128v293h292v-127h-164v-21q3 0 8 1.5t10 1.5q30 0 57 -11.5t46.5 -32t31 -47.5t11.5 -57v-63q0 -30 -11.5 -56.5t-31 -46
t-46.5 -31t-57 -11.5z" />
    <glyph glyph-name="six" unicode="6" horiz-adv-x="381" 
d="M187 354q30 0 57 -11.5t47.5 -31t32 -46.5t11.5 -57v-62q0 -30 -11.5 -57t-32 -47.5t-47.5 -32t-57 -11.5t-56.5 11.5t-46 32t-31 47.5t-11.5 57v62v14v166q0 49 40.5 80t104.5 31q33 0 60 -10t46.5 -27t30.5 -39t11 -46h-145h-21v-23h18zM208 208q0 9 -6 15t-15 6
q-7 0 -12.5 -6t-5.5 -15v-62q0 -9 5.5 -15t12.5 -6q9 0 15 6t6 15v62z" />
    <glyph glyph-name="seven" unicode="7" horiz-adv-x="381" 
d="M348 499v-80l-97 -148h35v-42h-62v-228h-125v228h-62v42h64l70 104h-134v124h311v0z" />
    <glyph glyph-name="eight" unicode="8" horiz-adv-x="370" 
d="M329 324q0 -41 -28 -74q28 -33 28 -74v-60q0 -24 -9 -45t-24.5 -36.5t-37 -24.5t-45.5 -9h-60q-24 0 -45.5 9t-37 24.5t-24.5 36.5t-9 45v60q0 41 28 74q-28 33 -28 74v60q0 24 9 45t24.5 36.5t37 24.5t45.5 9h60q24 0 45.5 -9t37 -24.5t24.5 -36.5t9 -45v-60zM201 171
l-18 24l-18 -24v-43h36v43zM201 372h-36v-43l18 -24l18 24v43z" />
    <glyph glyph-name="nine" unicode="9" horiz-adv-x="363" 
d="M323 295v-14v-166q0 -49 -40.5 -80t-104.5 -31q-33 0 -60.5 10.5t-47 27.5t-30 40t-10.5 47h145q5 0 10.5 -1t10.5 1v23q-5 -2 -10 -2.5t-8 -0.5q-32 0 -59 11.5t-46.5 31t-31 46.5t-11.5 57v62q0 30 11.5 57t31 47.5t46.5 32t59 11.5q30 0 56.5 -11.5t46 -32t31 -47.5
t11.5 -57v-62zM178 276q7 0 12.5 6t5.5 13v62q0 9 -5.5 15t-12.5 6q-9 0 -15 -6t-6 -15v-62q0 -7 6 -13t15 -6z" />
    <glyph glyph-name="colon" unicode=":" horiz-adv-x="224" 
d="M172 141q0 -26 -18 -44t-44 -18t-44 18t-18 44t18 44t44 18t44 -18t18 -44zM172 349q0 -26 -18 -44t-44 -18t-44 18t-18 44t18 44t44 18t44 -18t18 -44z" />
    <glyph glyph-name="semicolon" unicode=";" horiz-adv-x="201" 
d="M162 268q0 -26 -18 -44t-44 -18t-44 18t-18 44t18 44t44 18t44 -18t18 -44zM58 143v-83h21l-21 -62h42l42 62v83h-84z" />
    <glyph glyph-name="less" unicode="&#x3c;" horiz-adv-x="300" 
d="M92 282v0l102 102l30 -28l-104 -104l104 -102l-30 -30l-102 104v-2l-30 30v0v0z" />
    <glyph glyph-name="equal" unicode="=" horiz-adv-x="398" 
d="M335 177h-271v42h271v-42zM335 268h-271v42h271v-42z" />
    <glyph glyph-name="greater" unicode="&#x3e;" horiz-adv-x="258" 
d="M215 252v0v0l-30 -30v2l-102 -104l-30 30l104 102l-104 104l30 28l102 -102v0l30 -30v0z" />
    <glyph glyph-name="question" unicode="?" horiz-adv-x="268" 
d="M133 136q-28 0 -47.5 -19.5t-21.5 -47.5q-1 -15 4 -27.5t14 -22.5t21.5 -15.5t27.5 -5.5h2q28 0 49 19.5t21 47.5q0 29 -19.5 49t-47.5 22h-3zM177 164h-85v143l11 12q17 15 28 20q9 8 20.5 16.5t11.5 16.5q0 14 -7 26.5t-23 12.5q-14 0 -20.5 -11.5t-6.5 -27.5h-86
q0 24 7 47t23 41q16 19 37.5 27.5t45.5 8.5q53 0 86 -36q14 -18 22 -41t8 -47q0 -20 -7 -35.5t-17.5 -28t-22 -22t-20.5 -16.5q-2 0 -5 -2v-104z" />
    <glyph glyph-name="at" unicode="@" horiz-adv-x="660" 
d="M371 61v11q-14 -5 -30.5 -8t-32.5 -3q-39 0 -73 14.5t-59.5 40t-40 59.5t-14.5 73t14.5 73t40 59.5t59.5 40t73 14.5q16 0 32.5 -3t30.5 -8v11h124v-353h47q27 35 42 77t15 89q0 56 -21 105.5t-57.5 86t-86 57.5t-105.5 21t-105.5 -21t-86 -57.5t-57.5 -86t-21 -105.5
t21 -105.5t57.5 -86t86 -57.5t105.5 -21t104 21h83q-40 -30 -87.5 -46.5t-99.5 -16.5q-64 0 -121 24.5t-99.5 67t-67 99.5t-24.5 121t24.5 121t67 99.5t99.5 67t121 24.5t121 -24.5t99.5 -67t67 -99.5t24.5 -121q0 -60 -21 -113t-58 -95h-60h-131v21zM308 197q21 0 37 14
t16 37q0 21 -16 36t-37 15t-36 -15t-15 -36q0 -23 15 -37t36 -14z" />
    <glyph glyph-name="A" unicode="A" 
d="M456 0l-19 41h-233l-19 -41h-145l229 498h124l208 -498h-145zM264 166h115l-55 125z" />
    <glyph glyph-name="B" unicode="B" horiz-adv-x="454" 
d="M423 338q0 -24 -8 -47.5t-22 -42.5q14 -19 22 -42.5t8 -47.5q0 -32 -12 -60.5t-32.5 -50t-48 -34.5t-59.5 -14h-97h-84h-55v498h55h84h97q32 -2 59.5 -14.5t48 -34t32.5 -50t12 -60.5zM174 361v-46h90q8 0 15.5 7.5t7.5 15.5q0 11 -7.5 17t-15.5 6h-90zM264 135
q8 0 15.5 6t7.5 17q0 8 -7.5 14.5t-15.5 6.5v2h-90v-46h90z" />
    <glyph glyph-name="C" unicode="C" horiz-adv-x="513" 
d="M498 126q-34 -59 -93.5 -95.5t-132.5 -36.5q-54 0 -100.5 20t-81.5 54.5t-55 81t-20 100.5t20 100.5t55 81t81.5 54.5t100.5 20q73 0 132.5 -36.5t93.5 -95.5l-133 -71q-13 23 -37.5 38.5t-55.5 15.5q-22 0 -41.5 -8.5t-34 -22.5t-23 -34t-8.5 -42q0 -23 8.5 -42.5
t23 -33.5t34 -22.5t41.5 -8.5q31 0 55.5 15t37.5 39z" />
    <glyph glyph-name="D" unicode="D" horiz-adv-x="514" 
d="M241 499q52 0 97.5 -19.5t79.5 -53t53.5 -79t19.5 -97.5t-19.5 -97.5t-53.5 -79t-79.5 -53t-97.5 -19.5h-62h-63h-83v498h83h63h62zM241 146q44 0 74 30t30 74t-30 74t-74 30h-62v-208h62z" />
    <glyph glyph-name="E" unicode="E" horiz-adv-x="560" 
d="M530 354h-353v-32h270v-144h-270v-32h353v-145h-353h-145v145v32v144v32v145h145h353v-145v0z" />
    <glyph glyph-name="F" unicode="F" horiz-adv-x="508" 
d="M455 353h-252v-32h125v-146h-125v-175h-146v175v146v32v145h146h252v-145v0z" />
    <glyph glyph-name="G" unicode="G" horiz-adv-x="542" 
d="M528 252q0 -54 -20 -100.5t-54.5 -81t-81 -54.5t-100.5 -20t-100.5 20t-81 54.5t-54.5 81t-20 100.5t20 100.5t54.5 81t81 54.5t100.5 20q57 0 106 -22t85 -60l-113 -103q-14 17 -34.5 26.5t-43.5 9.5t-42.5 -8.5t-33.5 -22.5t-22.5 -34t-8.5 -42q0 -23 8.5 -42.5
t22.5 -33.5t33.5 -22.5t42.5 -8.5q32 0 58.5 17.5t39.5 46.5h-98v43h107h129h20z" />
    <glyph glyph-name="H" unicode="H" horiz-adv-x="597" 
d="M382 499h146v-175v-146v-177h-146v177h-166v-177h-146v177v146v175h146v-175h166v175v0z" />
    <glyph glyph-name="I" unicode="I" horiz-adv-x="233" 
d="M180 0h-124v498h124v-498v0z" />
    <glyph glyph-name="J" unicode="J" horiz-adv-x="447" 
d="M390 499v-354h-2q-3 -32 -17.5 -59.5t-37 -47.5t-52 -31t-62.5 -11q-34 0 -64 12t-53 33t-37 49.5t-17 61.5v50h149v-48q9 -11 22 -11t22 11v345h149z" />
    <glyph glyph-name="K" unicode="K" horiz-adv-x="576" 
d="M520 498l-185 -203l185 -295h-167l-117 184l-28 -30v-154h-146v498h146v-147l125 147h187v0z" />
    <glyph glyph-name="L" unicode="L" horiz-adv-x="588" 
d="M190 146h353v-145h-353h-145v145v353h145v-353v0z" />
    <glyph glyph-name="M" unicode="M" horiz-adv-x="603" 
d="M407 499h145v-498h-145v304l-104 -138l-104 138v-304h-145v498h145l104 -145l104 145v0z" />
    <glyph glyph-name="N" unicode="N" horiz-adv-x="606" 
d="M406 498h145v-498h-145l-208 270v-270h-145v498h145l208 -281v281v0z" />
    <glyph glyph-name="O" unicode="O" horiz-adv-x="537" 
d="M268 508q54 0 100.5 -20t81 -54.5t54.5 -81t20 -100.5t-20 -100.5t-54.5 -81t-81 -54.5t-100.5 -20t-100.5 20t-81 54.5t-54.5 81t-20 100.5t20 100.5t54.5 81t81 54.5t100.5 20zM268 145q22 0 42 8.5t34 22.5t22.5 33.5t8.5 42.5q0 22 -8.5 42t-22.5 34t-34 22.5
t-42 8.5q-23 0 -42.5 -8.5t-33.5 -22.5t-22.5 -34t-8.5 -42q0 -23 8.5 -42.5t22.5 -33.5t33.5 -22.5t42.5 -8.5z" />
    <glyph glyph-name="P" unicode="P" horiz-adv-x="481" 
d="M256 499q37 0 69.5 -15.5t56.5 -42t38 -62.5t14 -78q0 -41 -14 -77t-38 -62.5t-56.5 -42t-69.5 -15.5h-51v-103h-145v498h65h80h51zM235 227q28 0 47.5 22.5t19.5 51.5q0 31 -19.5 53.5t-47.5 22.5h-30v-150h30z" />
    <glyph glyph-name="Q" unicode="Q" horiz-adv-x="543" 
d="M525 250q0 -51 -17.5 -95.5t-47.5 -78.5l56 -50l-26 -32l-64 54q-65 -54 -157 -54q-54 0 -100.5 20t-81 54.5t-54.5 81t-20 100.5t20 100.5t54.5 81t81 54.5t100.5 20t100.5 -20t81 -54.5t54.5 -81t20 -100.5zM269 143q11 0 21.5 1.5t18.5 5.5l-62 55l29 31l69 -60
q14 14 22.5 33t8.5 41t-8.5 42t-22.5 34t-34 22.5t-42 8.5q-23 0 -42.5 -8.5t-33.5 -22.5t-22.5 -34t-8.5 -42q0 -23 8.5 -42.5t22.5 -33.5t33.5 -22.5t42.5 -8.5z" />
    <glyph glyph-name="R" unicode="R" horiz-adv-x="493" 
d="M298 2l-111 173v-173h-139v498h56h83h97q32 -2 59.5 -14.5t48 -34t32.5 -50t12 -60.5q0 -47 -25 -85.5t-65 -57.5l118 -196h-166zM187 364v-46h90q8 0 15.5 7.5t7.5 15.5q0 11 -7.5 17t-15.5 6h-90z" />
    <glyph glyph-name="S" unicode="S" horiz-adv-x="440" 
d="M233 315q33 0 62 -12t50.5 -33.5t34 -50t12.5 -61.5t-12.5 -62t-34 -50.5t-50.5 -34t-62 -12.5h-164v136h164q8 0 15.5 6t7.5 17q0 8 -7.5 14.5t-15.5 6.5h-21q-33 0 -62 12.5t-50.5 34t-34 50.5t-12.5 62t12.5 62t34 50.5t50.5 34t62 12.5h166v-136h-166q-8 0 -15.5 -6
t-7.5 -17q0 -8 7.5 -15.5t15.5 -7.5h21v0z" />
    <glyph glyph-name="T" unicode="T" horiz-adv-x="591" 
d="M537 498v-124h-167v-374h-145v374h-167v124h167h145h167v0z" />
    <glyph glyph-name="U" unicode="U" horiz-adv-x="529" 
d="M502 497v-269q0 -49 -18.5 -92t-50.5 -75t-75 -50.5t-92 -18.5t-92 18.5t-75 50.5t-50.5 75t-18.5 92v269h160v-269q0 -31 23 -52.5t53 -21.5t53 21.5t23 52.5v269h160z" />
    <glyph glyph-name="V" unicode="V" horiz-adv-x="595" 
d="M6 501h166l125 -249l125 249h166l-291 -498l-291 498v0z" />
    <glyph glyph-name="W" unicode="W" horiz-adv-x="574" 
d="M401 502h136v-339v0l-159 -159l-90 90l-92 -90l-157 159v339h136v-339l23 -19l23 19v0v0v339h134v-339l23 -19l23 19v339v0z" />
    <glyph glyph-name="X" unicode="X" horiz-adv-x="507" 
d="M483 499l-143 -247l143 -251h-162l-65 108l-62 -108h-162l143 251l-143 247h169l55 -99l58 99h169v0z" />
    <glyph glyph-name="Y" unicode="Y" horiz-adv-x="514" 
d="M322 498h169l-289 -498h-162l132 233l-153 265h178l60 -113l65 113v0z" />
    <glyph glyph-name="Z" unicode="Z" horiz-adv-x="580" 
d="M55 498h458v-145l-229 -208h229v-145h-458v145l271 208h-271v145v0z" />
    <glyph glyph-name="bracketleft" unicode="[" horiz-adv-x="94" 
d="M105 520h-42v-540h42v-42h-42h-21h-21v624h21h21h42v-42v0z" />
    <glyph glyph-name="backslash" unicode="\" horiz-adv-x="552" 
d="M433 -126l-361 748l37 18l361 -748l-37 -18v0z" />
    <glyph glyph-name="bracketright" unicode="]" horiz-adv-x="99" 
d="M-8 520v42h42h21h21v-624h-21h-21h-42v42h42v540h-42v0z" />
    <glyph glyph-name="asciicircum" unicode="^" horiz-adv-x="567" 
d="M506 600l-16 -37l-210 92l-213 -92l-16 37l229 101v0v0v0v0l226 -101v0z" />
    <glyph glyph-name="underscore" unicode="_" horiz-adv-x="525" 
d="M487 0h-451v42h451v-42v0z" />
    <glyph glyph-name="grave" unicode="`" horiz-adv-x="415" 
d="M363 637l-326 69l9 41l326 -69l-9 -41v0z" />
    <glyph glyph-name="a" unicode="a" horiz-adv-x="549" 
d="M518 498v-498h-145v23q-24 -13 -50 -18t-54 -5q-52 0 -97.5 19.5t-79 53t-53 79t-19.5 97.5t19.5 97.5t53 79t79 53t97.5 19.5q28 0 54 -6t50 -17v23h145zM269 154q19 0 36 7.5t29.5 20.5t19.5 30.5t7 36.5t-7 36t-19.5 29.5t-29.5 19.5t-36 7t-36.5 -7t-30.5 -19.5
t-20.5 -29.5t-7.5 -36t7.5 -36.5t20.5 -30.5t30.5 -20.5t36.5 -7.5z" />
    <glyph glyph-name="b" unicode="b" horiz-adv-x="513" 
d="M450 339q0 -24 -8 -47.5t-22 -42.5q14 -19 22 -42.5t8 -47.5q0 -32 -12 -60.5t-32.5 -50t-48 -34.5t-59.5 -14h-97h-84h-55v498h55h84h97q32 -2 59.5 -14.5t48 -34t32.5 -50t12 -60.5zM201 362v-46h90q8 0 15.5 7.5t7.5 15.5q0 11 -7.5 17t-15.5 6h-90zM291 136
q8 0 15.5 6t7.5 17q0 8 -7.5 15.5t-15.5 7.5h-90v-46h90z" />
    <glyph glyph-name="c" unicode="c" horiz-adv-x="515" 
d="M499 128q-34 -59 -93.5 -95.5t-132.5 -36.5q-54 0 -100.5 20t-81.5 54.5t-55 81t-20 100.5t20 100.5t55 81t81.5 54.5t100.5 20q73 0 132.5 -36.5t93.5 -95.5l-133 -71q-13 23 -37.5 38.5t-55.5 15.5q-22 0 -41.5 -8.5t-34 -22.5t-23 -34t-8.5 -42q0 -23 8.5 -42.5
t23 -33.5t34 -22.5t41.5 -8.5q31 0 55.5 15t37.5 39z" />
    <glyph glyph-name="d" unicode="d" horiz-adv-x="521" 
d="M244 497q52 0 97.5 -19.5t79.5 -53t53.5 -79t19.5 -97.5t-19.5 -97.5t-53.5 -79t-79.5 -53t-97.5 -19.5h-62h-63h-83v498h83h63h62zM244 144q44 0 74 30t30 74t-30 74t-74 30h-62v-208h62z" />
    <glyph glyph-name="e" unicode="e" horiz-adv-x="500" 
d="M181 146h300v-145h-300h-145v145v30v146v32v145h145h263v-145h-263v-32h226v-146h-226v-30v0z" />
    <glyph glyph-name="f" unicode="f" horiz-adv-x="482" 
d="M441 353h-252v-32h125v-146h-125v-175h-146v175v146v32v145h146h252v-145v0z" />
    <glyph glyph-name="g" unicode="g" horiz-adv-x="554" 
d="M538 248q0 -54 -20 -100.5t-54.5 -81t-81 -54.5t-100.5 -20t-100.5 20t-81 54.5t-54.5 81t-20 100.5t20 100.5t54.5 81t81 54.5t100.5 20q57 0 106 -22t85 -60l-113 -103q-14 17 -34.5 26.5t-43.5 9.5t-42.5 -8.5t-33.5 -22.5t-22.5 -34t-8.5 -42q0 -23 8.5 -42.5
t22.5 -33.5t33.5 -22.5t42.5 -8.5q32 0 58.5 17.5t39.5 46.5h-98v43h107h129h20z" />
    <glyph glyph-name="h" unicode="h" horiz-adv-x="594" 
d="M378 498h146v-175v-146v-177h-146v177h-166v-177h-146v177v146v175h146v-175h166v175v0z" />
    <glyph glyph-name="i" unicode="i" horiz-adv-x="238" 
d="M181 0h-124v499h124v-499zM181 582q0 -26 -18 -44t-44 -18t-44 18t-18 44t18 44.5t44 18.5t44 -18.5t18 -44.5z" />
    <glyph glyph-name="j" unicode="j" horiz-adv-x="452" 
d="M395 496v-353h-2q-3 -32 -17.5 -59.5t-37 -47.5t-52 -31.5t-62.5 -11.5q-34 0 -64 12t-52.5 33.5t-37 50t-17.5 61.5v50h149v-48q10 -12 22 -12t22 12v344h149z" />
    <glyph glyph-name="k" unicode="k" horiz-adv-x="520" 
d="M489 497l-185 -203l185 -295h-167l-117 184l-28 -30v-154h-146v498h146v-147l125 147h187v0z" />
    <glyph glyph-name="l" unicode="l" horiz-adv-x="455" 
d="M179 123h249v-124h-249h-146v124v374h146v-374v0z" />
    <glyph glyph-name="m" unicode="m" horiz-adv-x="585" 
d="M395 500h145v-498h-145v304l-104 -138l-104 138v-304h-145v498h145l104 -145l104 145v0z" />
    <glyph glyph-name="n" unicode="n" horiz-adv-x="603" 
d="M404 498h145v-498h-145l-208 270v-270h-145v498h145l208 -281v281v0z" />
    <glyph glyph-name="o" unicode="o" horiz-adv-x="542" 
d="M274 506q54 0 100.5 -20t81 -54.5t54.5 -81t20 -100.5t-20 -100.5t-54.5 -81t-81 -54.5t-100.5 -20t-100.5 20t-81 54.5t-54.5 81t-20 100.5t20 100.5t54.5 81t81 54.5t100.5 20zM274 143q22 0 42 8.5t34 22.5t22.5 33.5t8.5 42.5q0 22 -8.5 42t-22.5 34t-34 22.5
t-42 8.5q-23 0 -42.5 -8.5t-33.5 -22.5t-22.5 -34t-8.5 -42q0 -23 8.5 -42.5t22.5 -33.5t33.5 -22.5t42.5 -8.5z" />
    <glyph glyph-name="p" unicode="p" horiz-adv-x="480" 
d="M253 499q37 0 69.5 -15.5t56.5 -42t38 -62.5t14 -78q0 -41 -14 -77t-38 -62.5t-56.5 -42t-69.5 -15.5h-51v-103h-145v498h65h80h51zM232 227q28 0 47.5 22.5t19.5 51.5q0 31 -19.5 53.5t-47.5 22.5h-30v-150h30z" />
    <glyph glyph-name="q" unicode="q" horiz-adv-x="541" 
d="M527 250q0 -51 -17.5 -95.5t-47.5 -78.5l56 -50l-26 -32l-64 54q-65 -54 -157 -54q-54 0 -100.5 20t-81 54.5t-54.5 81t-20 100.5t20 100.5t54.5 81t81 54.5t100.5 20t100.5 -20t81 -54.5t54.5 -81t20 -100.5zM271 143q11 0 21.5 1.5t18.5 5.5l-62 55l29 31l69 -60
q14 14 22.5 33t8.5 41t-8.5 42t-22.5 34t-34 22.5t-42 8.5q-23 0 -42.5 -8.5t-33.5 -22.5t-22.5 -34t-8.5 -42q0 -23 8.5 -42.5t22.5 -33.5t33.5 -22.5t42.5 -8.5z" />
    <glyph glyph-name="r" unicode="r" horiz-adv-x="485" 
d="M286 0l-111 173v-173h-139v498h56h83h97q32 -2 59.5 -14.5t48 -34t32.5 -50t12 -60.5q0 -47 -25 -85.5t-65 -57.5l118 -196h-166zM175 362v-46h90q8 0 15.5 7.5t7.5 15.5q0 11 -7.5 17t-15.5 6h-90z" />
    <glyph glyph-name="s" unicode="s" horiz-adv-x="440" 
d="M235 320q33 0 62 -12.5t50.5 -34t34 -50.5t12.5 -62t-12.5 -62t-34 -50.5t-50.5 -34t-62 -12.5h-164v136h164q8 0 15.5 6t7.5 17q0 8 -7.5 15.5t-15.5 7.5h-21q-33 0 -62 12t-50.5 33.5t-34 50t-12.5 61.5t12.5 62t34 50.5t50.5 34t62 12.5h166v-136h-166q-8 0 -15.5 -6
t-7.5 -17q0 -8 7.5 -14.5t15.5 -6.5h21v0z" />
    <glyph glyph-name="t" unicode="t" horiz-adv-x="470" 
d="M432 496v-124h-125v-374h-145v374h-125v124h125h145h125v0z" />
    <glyph glyph-name="u" unicode="u" horiz-adv-x="538" 
d="M505 497v-269q0 -49 -18.5 -92t-50.5 -75t-75 -50.5t-92 -18.5t-92 18.5t-75 50.5t-50.5 75t-18.5 92v269h160v-269q0 -31 23 -52.5t53 -21.5t53 21.5t23 52.5v269h160z" />
    <glyph glyph-name="v" unicode="v" horiz-adv-x="589" 
d="M4 501h166l125 -249l125 249h166l-291 -498l-291 498v0z" />
    <glyph glyph-name="w" unicode="w" horiz-adv-x="549" 
d="M27 498h134l21 -291l94 109l93 -109l18 291h134l-34 -498h-141l-70 115l-71 -115h-144l-34 498v0z" />
    <glyph glyph-name="x" unicode="x" horiz-adv-x="512" 
d="M483 499l-143 -247l143 -251h-162l-65 108l-62 -108h-162l143 251l-143 247h169l55 -99l58 99h169v0z" />
    <glyph glyph-name="y" unicode="y" horiz-adv-x="517" 
d="M331 500h162l-169 -291v-207h-134v207l-16 26l-153 265h169l72 -136l69 136v0z" />
    <glyph glyph-name="z" unicode="z" horiz-adv-x="588" 
d="M63 498h458v-145l-229 -208h229v-145h-458v145l271 208h-271v145v0z" />
    <glyph glyph-name="braceleft" unicode="{" horiz-adv-x="94" 
d="M104 522h-42v-540h42v-42h-42h-21h-21v624h21h21h42v-42v0z" />
    <glyph glyph-name="bar" unicode="|" horiz-adv-x="237" 
d="M137 -174h-42v832h42v-832v0z" />
    <glyph glyph-name="braceright" unicode="}" horiz-adv-x="100" 
d="M-7 520v42h42h21h21v-624h-21h-21h-42v42h42v540h-42v0z" />
    <glyph glyph-name="asciitilde" unicode="~" horiz-adv-x="529" 
d="M375 611q-31 0 -61.5 7.5t-58.5 15.5q-29 9 -55.5 16t-50.5 8t-45 -6.5t-38 -28.5l-28 23q22 28 49.5 38.5t57.5 10.5t60.5 -7.5t59.5 -16.5q28 -9 55 -15.5t50.5 -7t44 7.5t37.5 29l30 -25q-23 -28 -50 -38.5t-57 -10.5z" />
    <glyph glyph-name="uni007F" horiz-adv-x="0" 
 />
    <glyph glyph-name="exclamdown" unicode="&#xa1;" horiz-adv-x="184" 
d="M86 360q-28 2 -47.5 22t-19.5 49q2 28 21.5 47.5t47.5 19.5h3q29 0 48.5 -21t18.5 -50q0 -28 -21 -47.5t-49 -19.5h-2zM38 332h103v-332h-103v332z" />
    <glyph glyph-name="cent" unicode="&#xa2;" horiz-adv-x="538" 
d="M290 144q26 2 47.5 16t33.5 37l129 -69q-32 -55 -87 -90.5t-123 -38.5v-24v-153h-42v153v26q-46 6 -85.5 27.5t-69 54t-46 75t-16.5 90.5t16.5 90.5t46 75t69 54t85.5 27.5v38v121h42v-121v-36q68 -2 123 -37.5t87 -91.5l-129 -69q-12 21 -33.5 35.5t-47.5 17.5v-208z
M177 248q0 -35 20 -61.5t51 -37.5v198q-31 -11 -51 -37.5t-20 -61.5z" />
    <glyph glyph-name="dieresis" unicode="&#xa8;" horiz-adv-x="415" 
d="M167 589q0 -17 -12 -29.5t-29 -12.5t-29.5 12.5t-12.5 29.5t12.5 29.5t29.5 12.5t29 -12.5t12 -29.5zM334 589q0 -17 -12.5 -29.5t-29.5 -12.5t-29 12.5t-12 29.5t12 29.5t29 12.5t29.5 -12.5t12.5 -29.5z" />
    <glyph glyph-name="degree" unicode="&#xb0;" horiz-adv-x="232" 
d="M117 523q-29 0 -49 20t-20 49t20 49t49 20q28 0 48.5 -20t20.5 -49t-20.5 -49t-48.5 -20zM117 617q-11 0 -18 -7t-7 -18t7 -18.5t18 -7.5t18.5 7.5t7.5 18.5t-7.5 18t-18.5 7z" />
    <glyph glyph-name="plusminus" unicode="&#xb1;" horiz-adv-x="340" 
d="M190 150h-41v270h41v-270v0zM304 263h-271v41h271v-41v0zM304 64h-271v42h271v-42v0z" />
    <glyph glyph-name="acute" unicode="&#xb4;" horiz-adv-x="139" 
d="M73 413l-41 7l37 247l41 -7l-37 -247v0z" />
    <glyph glyph-name="cedilla" unicode="&#xb8;" horiz-adv-x="524" 
d="M227 -143v83h21l-21 62h42l42 -62v-83h-84v0z" />
    <glyph glyph-name="questiondown" unicode="&#xbf;" horiz-adv-x="268" 
d="M133 358q-28 2 -47.5 22t-19.5 49q0 28 21 47.5t49 19.5h2q29 0 48.5 -21t18.5 -50q-2 -28 -21.5 -47.5t-47.5 -19.5h-3zM92 330h85v-143l-11 -12q-17 -15 -28 -20q-9 -8 -20.5 -16.5t-11.5 -16.5q0 -14 7 -26.5t23 -12.5q14 0 20.5 11.5t6.5 27.5h86q0 -24 -7 -47
t-23 -41q-16 -19 -37.5 -27.5t-45.5 -8.5q-53 0 -86 36q-14 18 -22 41t-8 47q0 20 7 35.5t17.5 28t22 22t20.5 16.5q2 0 5 2v104z" />
    <glyph glyph-name="Agrave" unicode="&#xc0;" 
d="M456 0l-19 41h-233l-19 -41h-145l229 498h124l208 -498h-145zM264 166h115l-55 125zM483 514l-326 69l9 41l326 -69l-9 -41v0z" />
    <glyph glyph-name="Aacute" unicode="&#xc1;" 
d="M520 389l-41 4l39 247l39 -7l-37 -244v0zM456 0h145l-208 498h-124l-229 -498h145l19 41h233l19 -41v0zM264 166l60 125l55 -125h-115v0z" />
    <glyph glyph-name="Acircumflex" unicode="&#xc2;" 
d="M557 549l-16 -37l-210 94l-211 -94l-18 37l229 101zM456 0l-19 41h-233l-19 -41h-145l229 498h124l208 -498h-145zM264 166h115l-55 125z" />
    <glyph glyph-name="Atilde" unicode="&#xc3;" 
d="M443 508q-29 0 -60.5 7.5t-59.5 15.5q-29 9 -55.5 16t-50.5 8t-45 -6.5t-38 -28.5l-28 23q24 28 51.5 38.5t57 10.5t59.5 -7.5t59 -16.5q28 -9 55 -15.5t50.5 -7t44 7.5t37.5 29l30 -25q-23 -28 -50 -38.5t-57 -10.5zM456 0h145l-208 498h-124l-229 -498h145l19 41h233z
M264 166l60 125l55 -125h-115z" />
    <glyph glyph-name="Adieresis" unicode="&#xc4;" 
d="M289 580q0 -17 -12 -29.5t-29 -12.5t-29.5 12.5t-12.5 29.5t12.5 29.5t29.5 12.5t29 -12.5t12 -29.5zM456 580q0 -17 -12.5 -29.5t-29.5 -12.5t-29 12.5t-12 29.5t12 29.5t29 12.5t29.5 -12.5t12.5 -29.5zM456 0h145l-208 498h-124l-229 -498h145l19 41h233zM264 166
l60 125l55 -125h-115z" />
    <glyph glyph-name="Aring" unicode="&#xc5;" 
d="M456 0l-19 41h-233l-19 -41h-145l229 498h124l208 -498h-145zM264 166h115l-55 125z" />
    <glyph glyph-name="AE" unicode="&#xc6;" horiz-adv-x="937" 
d="M896 353h-354v-30h270v-146h-270v-32h354v-145h-354h-145v20h-171l-16 -20h-181l365 498l3 -2v2h145h354v-145zM318 145h79v32v79z" />
    <glyph glyph-name="Ccedilla" unicode="&#xc7;" horiz-adv-x="517" 
d="M274 142q31 0 56 14.5t39 40.5l131 -72q-30 -55 -83 -90t-119 -40l33 -53v-85h-85v85h21l-17 53q-49 4 -91.5 26t-74 56t-49.5 78t-18 94q0 54 20.5 100.5t55.5 81.5t81.5 55t99.5 20q73 0 133.5 -36.5t92.5 -96.5l-131 -72q-14 25 -39 40t-56 15q-22 0 -41.5 -8.5
t-34 -22.5t-23 -34t-8.5 -42t8.5 -41.5t23 -34t34 -23t41.5 -8.5z" />
    <glyph glyph-name="Egrave" unicode="&#xc8;" horiz-adv-x="581" 
d="M541 354h-353v-32h270v-144h-270v-32h353v-145h-353h-145v145v32v144v32v145h145h353v-145v0zM449 512l-326 69l9 41l326 -69l-9 -41v0z" />
    <glyph glyph-name="Eacute" unicode="&#xc9;" horiz-adv-x="631" 
d="M598 345l-41 4l39 247l39 -7zM541 354v145h-353h-145v-145v-32v-144v-32v-145h145h353v145h-353v32h270v144h-270v32h353v0z" />
    <glyph glyph-name="Ecircumflex" unicode="&#xca;" horiz-adv-x="581" 
d="M503 519l-210 94l-211 -94l-18 37l229 101l226 -101zM541 354h-353v-32h270v-144h-270v-32h353v-145h-353h-145v145v32v144v32v145h145h353v-145z" />
    <glyph glyph-name="Edieresis" unicode="&#xcb;" horiz-adv-x="581" 
d="M255 580q0 -17 -12 -29.5t-29 -12.5t-29.5 12.5t-12.5 29.5t12.5 29.5t29.5 12.5t29 -12.5t12 -29.5zM422 580q0 -17 -12.5 -29.5t-29.5 -12.5t-29 12.5t-12 29.5t12 29.5t29 12.5t29.5 -12.5t12.5 -29.5zM541 354v145h-353h-145v-145v-32v-144v-32v-145h145h353v145
h-353v32h270v144h-270v32h353z" />
    <glyph glyph-name="Igrave" unicode="&#xcc;" horiz-adv-x="190" 
d="M156 0h-124v498h124v-498v0zM251 514l-326 69l9 41l326 -69l-9 -41v0z" />
    <glyph glyph-name="Iacute" unicode="&#xcd;" horiz-adv-x="224" 
d="M211 373l-41 4l39 247l39 -7zM157 0h-124v498h124v-498v0z" />
    <glyph glyph-name="Icircumflex" unicode="&#xce;" horiz-adv-x="190" 
d="M302 509l-210 94l-211 -94l-18 37l229 101l226 -101zM157 0h-124v498h124v-498v0z" />
    <glyph glyph-name="Idieresis" unicode="&#xcf;" horiz-adv-x="213" 
d="M68 572q0 -17 -12 -29.5t-29 -12.5t-29.5 12.5t-12.5 29.5t12.5 29.5t29.5 12.5t29 -12.5t12 -29.5zM235 572q0 -17 -12.5 -29.5t-29.5 -12.5t-29 12.5t-12 29.5t12 29.5t29 12.5t29.5 -12.5t12.5 -29.5zM170 0h-124v496h124v-496z" />
    <glyph glyph-name="Eth" unicode="&#xd0;" horiz-adv-x="546" 
d="M266 498q52 0 97.5 -19.5t79.5 -53t53.5 -79t19.5 -97.5t-19.5 -97.5t-53.5 -79t-79.5 -53t-97.5 -19.5h-62h-63h-83v233v6h-48v42h48v217h83h63h62zM266 145q44 0 74 30t30 74t-30 74t-74 30h-62v-72h55v-42h-55v-6v-88h62z" />
    <glyph glyph-name="Ntilde" unicode="&#xd1;" horiz-adv-x="606" 
d="M421 525q-29 0 -60.5 7.5t-59.5 15.5q-29 9 -55.5 16t-50.5 8t-45 -6.5t-38 -28.5l-28 23q24 28 51.5 38.5t57 10.5t59.5 -7.5t59 -16.5q28 -9 55 -15.5t50.5 -7t44 7.5t37.5 29l30 -25q-23 -28 -50 -38.5t-57 -10.5zM406 498v-281l-208 281h-145v-498h145v270l208 -270
h145v498h-145z" />
    <glyph glyph-name="Ograve" unicode="&#xd2;" horiz-adv-x="554" 
d="M278 508q54 0 100.5 -20t81 -54.5t54.5 -81t20 -100.5t-20 -100.5t-54.5 -81t-81 -54.5t-100.5 -20t-100.5 20t-81 54.5t-54.5 81t-20 100.5t20 100.5t54.5 81t81 54.5t100.5 20zM278 145q22 0 42 8.5t34 22.5t22.5 33.5t8.5 42.5q0 22 -8.5 42t-22.5 34t-34 22.5
t-42 8.5q-23 0 -42.5 -8.5t-33.5 -22.5t-22.5 -34t-8.5 -42q0 -23 8.5 -42.5t22.5 -33.5t33.5 -22.5t42.5 -8.5zM435 509l-326 69l9 41l326 -69l-9 -41v0z" />
    <glyph glyph-name="Oacute" unicode="&#xd3;" horiz-adv-x="557" 
d="M540 394l-41 4l39 247l39 -7zM273 508q-54 0 -100.5 -20t-81 -54.5t-54.5 -81t-20 -100.5t20 -100.5t54.5 -81t81 -54.5t100.5 -20t100.5 20t81 54.5t54.5 81t20 100.5t-20 100.5t-54.5 81t-81 54.5t-100.5 20zM273 145q-23 0 -42.5 8.5t-33.5 22.5t-22.5 33.5t-8.5 42.5
q0 22 8.5 42t22.5 34t33.5 22.5t42.5 8.5q22 0 42 -8.5t34 -22.5t22.5 -34t8.5 -42q0 -23 -8.5 -42.5t-22.5 -33.5t-34 -22.5t-42 -8.5z" />
    <glyph glyph-name="Ocircumflex" unicode="&#xd4;" horiz-adv-x="559" 
d="M488 510l-210 94l-211 -94l-18 37l229 101l226 -101zM279 508q54 0 100.5 -20t81 -54.5t54.5 -81t20 -100.5t-20 -100.5t-54.5 -81t-81 -54.5t-100.5 -20t-100.5 20t-81 54.5t-54.5 81t-20 100.5t20 100.5t54.5 81t81 54.5t100.5 20zM279 145q22 0 42 8.5t34 22.5
t22.5 33.5t8.5 42.5q0 22 -8.5 42t-22.5 34t-34 22.5t-42 8.5q-23 0 -42.5 -8.5t-33.5 -22.5t-22.5 -34t-8.5 -42q0 -23 8.5 -42.5t22.5 -33.5t33.5 -22.5t42.5 -8.5z" />
    <glyph glyph-name="Otilde" unicode="&#xd5;" horiz-adv-x="550" 
d="M396 517q-29 0 -60.5 7.5t-59.5 15.5q-29 9 -55.5 16t-50.5 8t-45 -6.5t-38 -28.5l-28 23q24 28 51.5 38.5t57 10.5t59.5 -7.5t59 -16.5q28 -9 55 -15.5t50.5 -7t44 7.5t37.5 29l30 -25q-23 -28 -50 -38.5t-57 -10.5zM275 508q-54 0 -100.5 -20t-81 -54.5t-54.5 -81
t-20 -100.5t20 -100.5t54.5 -81t81 -54.5t100.5 -20t100.5 20t81 54.5t54.5 81t20 100.5t-20 100.5t-54.5 81t-81 54.5t-100.5 20zM275 145q-23 0 -42.5 8.5t-33.5 22.5t-22.5 33.5t-8.5 42.5q0 22 8.5 42t22.5 34t33.5 22.5t42.5 8.5q22 0 42 -8.5t34 -22.5t22.5 -34
t8.5 -42q0 -23 -8.5 -42.5t-22.5 -33.5t-34 -22.5t-42 -8.5z" />
    <glyph glyph-name="Odieresis" unicode="&#xd6;" horiz-adv-x="552" 
d="M237 580q0 -17 -12 -29.5t-29 -12.5t-29.5 12.5t-12.5 29.5t12.5 29.5t29.5 12.5t29 -12.5t12 -29.5zM404 580q0 -17 -12.5 -29.5t-29.5 -12.5t-29 12.5t-12 29.5t12 29.5t29 12.5t29.5 -12.5t12.5 -29.5zM278 508q-54 0 -100.5 -20t-81 -54.5t-54.5 -81t-20 -100.5
t20 -100.5t54.5 -81t81 -54.5t100.5 -20t100.5 20t81 54.5t54.5 81t20 100.5t-20 100.5t-54.5 81t-81 54.5t-100.5 20zM278 145q-23 0 -42.5 8.5t-33.5 22.5t-22.5 33.5t-8.5 42.5q0 22 8.5 42t22.5 34t33.5 22.5t42.5 8.5q22 0 42 -8.5t34 -22.5t22.5 -34t8.5 -42
q0 -23 -8.5 -42.5t-22.5 -33.5t-34 -22.5t-42 -8.5z" />
    <glyph glyph-name="multiply" unicode="&#xd7;" horiz-adv-x="312" 
d="M71 140l-30 27l192 192l30 -30l-192 -189v0zM233 140l-192 189l30 30l192 -192l-30 -27v0z" />
    <glyph glyph-name="Oslash" unicode="&#xd8;" horiz-adv-x="546" 
d="M404 461q54 -33 86 -89t32 -124q0 -52 -19.5 -97.5t-53.5 -79t-79.5 -53t-97.5 -19.5q-23 0 -43 3t-40 11l-76 -155l-37 18l74 155q-57 33 -91 90.5t-34 126.5q0 52 19.5 97.5t53 79.5t78.5 53.5t96 19.5q26 0 49 -5t46 -14l69 148l37 -18zM168 248q0 -26 13 -48.5
t34 -36.5l87 185q-7 2 -14 3t-16 1q-21 0 -39.5 -8t-33 -22t-23 -33t-8.5 -41zM272 144q22 0 41.5 8t34 22.5t23 33.5t8.5 40q0 25 -11.5 46t-28.5 35l-87 -182q5 -2 10 -2.5t10 -0.5z" />
    <glyph glyph-name="Ugrave" unicode="&#xd9;" horiz-adv-x="540" 
d="M506 497v-269q0 -49 -18.5 -92t-50.5 -75t-75 -50.5t-92 -18.5t-92 18.5t-75 50.5t-50.5 75t-18.5 92v269h160v-269q0 -31 23 -52.5t53 -21.5t53 21.5t23 52.5v269h160zM429 514l-326 69l9 41l326 -69l-9 -41v0z" />
    <glyph glyph-name="Uacute" unicode="&#xda;" horiz-adv-x="526" 
d="M283 384l-41 4l39 247l39 -7zM338 501v-272q0 -30 -22.5 -51t-51.5 -21t-51.5 21t-22.5 51v272h-155v-272q0 -48 18 -89.5t49 -72.5t72.5 -49t89.5 -18t89.5 18t72.5 49t49 72.5t18 89.5v272h-155z" />
    <glyph glyph-name="Ucircumflex" unicode="&#xdb;" horiz-adv-x="538" 
d="M483 512l-210 94l-211 -94l-18 37l229 101l226 -101zM504 497v-269q0 -49 -18.5 -92t-50.5 -75t-75 -50.5t-92 -18.5t-92 18.5t-75 50.5t-50.5 75t-18.5 92v269h160v-269q0 -31 23 -52.5t53 -21.5t53 21.5t23 52.5v269h160z" />
    <glyph glyph-name="Udieresis" unicode="&#xdc;" horiz-adv-x="533" 
d="M225 589q0 -17 -12 -29.5t-29 -12.5t-29.5 12.5t-12.5 29.5t12.5 29.5t29.5 12.5t29 -12.5t12 -29.5zM392 589q0 -17 -12.5 -29.5t-29.5 -12.5t-29 12.5t-12 29.5t12 29.5t29 12.5t29.5 -12.5t12.5 -29.5zM342 497v-269q0 -31 -23 -52.5t-53 -21.5t-53 21.5t-23 52.5v269
h-160v-269q0 -49 18.5 -92t50.5 -75t75 -50.5t92 -18.5t92 18.5t75 50.5t50.5 75t18.5 92v269h-160z" />
    <glyph glyph-name="Yacute" unicode="&#xdd;" horiz-adv-x="573" 
d="M549 373l-41 4l39 247l39 -7zM344 498l-65 -113l-60 113h-178l153 -265l-132 -233h162l289 498h-169v0z" />
    <glyph glyph-name="Thorn" unicode="&#xde;" horiz-adv-x="434" 
d="M230 450q36 0 68 -15.5t56 -42t37.5 -62.5t13.5 -76q0 -42 -13.5 -78t-37.5 -63t-56 -42.5t-68 -15.5h-54v-104h-145v374v125v104h145v-104h54zM206 180q28 0 46.5 21t18.5 53q0 29 -18.5 51.5t-46.5 22.5h-30v-3v-145h30z" />
    <glyph glyph-name="germandbls" unicode="&#xdf;" horiz-adv-x="453" 
d="M272 -4q-9 0 -16 1t-14 1h-26v129h30q11 -2 26.5 -2t22.5 2q0 2 1 6.5t1 12.5q0 5 -5.5 14t-19.5 20q-16 14 -31.5 20t-24.5 6v129q7 0 17.5 5.5t17.5 13.5q-7 7 -17.5 12.5t-17.5 5.5h-39v-372h-129v501h168q26 0 54 -9.5t52 -29.5q30 -23 46.5 -51t16.5 -57
q0 -20 -7 -40t-21 -37q32 -26 50.5 -59.5t18.5 -71.5q0 -74 -41 -111q-25 -25 -55 -32t-58 -7z" />
    <glyph glyph-name="agrave" unicode="&#xe0;" horiz-adv-x="567" 
d="M527 498v-498h-145v23q-24 -13 -50 -18t-54 -5q-52 0 -97.5 19.5t-79 53t-53 79t-19.5 97.5t19.5 97.5t53 79t79 53t97.5 19.5q28 0 54 -6t50 -17v23h145zM278 154q19 0 36 7.5t29.5 20.5t19.5 30.5t7 36.5t-7 36t-19.5 29.5t-29.5 19.5t-36 7t-36.5 -7t-30.5 -19.5
t-20.5 -29.5t-7.5 -36t7.5 -36.5t20.5 -30.5t30.5 -20.5t36.5 -7.5zM447 517l-326 69l9 41l326 -69l-9 -41v0z" />
    <glyph glyph-name="aacute" unicode="&#xe1;" horiz-adv-x="611" 
d="M589 372l-41 4l39 247l39 -7zM375 498v-23q-24 11 -50 17t-54 6q-52 0 -97.5 -19.5t-79 -53t-53 -79t-19.5 -97.5t19.5 -97.5t53 -79t79 -53t97.5 -19.5q28 0 54 5t50 18v-23h145v498h-145zM271 154q-19 0 -36.5 7.5t-30.5 20.5t-20.5 30.5t-7.5 36.5t7.5 36t20.5 29.5
t30.5 19.5t36.5 7t36 -7t29.5 -19.5t19.5 -29.5t7 -36t-7 -36.5t-19.5 -30.5t-29.5 -20.5t-36 -7.5z" />
    <glyph glyph-name="acircumflex" unicode="&#xe2;" horiz-adv-x="573" 
d="M514 514l-210 94l-211 -94l-18 37l229 101l226 -101zM533 498v-498h-145v23q-24 -13 -50 -18t-54 -5q-52 0 -97.5 19.5t-79 53t-53 79t-19.5 97.5t19.5 97.5t53 79t79 53t97.5 19.5q28 0 54 -6t50 -17v23h145zM284 154q19 0 36 7.5t29.5 20.5t19.5 30.5t7 36.5t-7 36
t-19.5 29.5t-29.5 19.5t-36 7t-36.5 -7t-30.5 -19.5t-20.5 -29.5t-7.5 -36t7.5 -36.5t20.5 -30.5t30.5 -20.5t36.5 -7.5z" />
    <glyph glyph-name="atilde" unicode="&#xe3;" horiz-adv-x="574" 
d="M403 517q-29 0 -60.5 7.5t-59.5 15.5q-29 9 -55.5 16t-50.5 8t-45 -6.5t-38 -28.5l-28 23q24 28 51.5 38.5t57 10.5t59.5 -7.5t59 -16.5q28 -9 55 -15.5t50.5 -7t44 7.5t37.5 29l30 -25q-23 -28 -50 -38.5t-57 -10.5zM383 498v-23q-24 11 -50 17t-54 6q-52 0 -97.5 -19.5
t-79 -53t-53 -79t-19.5 -97.5t19.5 -97.5t53 -79t79 -53t97.5 -19.5q28 0 54 5t50 18v-23h145v498h-145zM279 154q-19 0 -36.5 7.5t-30.5 20.5t-20.5 30.5t-7.5 36.5t7.5 36t20.5 29.5t30.5 19.5t36.5 7t36 -7t29.5 -19.5t19.5 -29.5t7 -36t-7 -36.5t-19.5 -30.5
t-29.5 -20.5t-36 -7.5z" />
    <glyph glyph-name="adieresis" unicode="&#xe4;" horiz-adv-x="571" 
d="M262 588q0 -17 -12 -29.5t-29 -12.5t-29.5 12.5t-12.5 29.5t12.5 29.5t29.5 12.5t29 -12.5t12 -29.5zM429 588q0 -17 -12.5 -29.5t-29.5 -12.5t-29 12.5t-12 29.5t12 29.5t29 12.5t29.5 -12.5t12.5 -29.5zM387 498v-23q-24 11 -50 17t-54 6q-52 0 -97.5 -19.5t-79 -53
t-53 -79t-19.5 -97.5t19.5 -97.5t53 -79t79 -53t97.5 -19.5q28 0 54 5t50 18v-23h145v498h-145zM283 154q-19 0 -36.5 7.5t-30.5 20.5t-20.5 30.5t-7.5 36.5t7.5 36t20.5 29.5t30.5 19.5t36.5 7t36 -7t29.5 -19.5t19.5 -29.5t7 -36t-7 -36.5t-19.5 -30.5t-29.5 -20.5
t-36 -7.5z" />
    <glyph glyph-name="aring" unicode="&#xe5;" horiz-adv-x="561" 
d="M520 498v-498h-145v23q-24 -13 -50 -18t-54 -5q-52 0 -97.5 19.5t-79 53t-53 79t-19.5 97.5t19.5 97.5t53 79t79 53t97.5 19.5q28 0 54 -6t50 -17v23h145zM271 154q19 0 36 7.5t29.5 20.5t19.5 30.5t7 36.5t-7 36t-19.5 29.5t-29.5 19.5t-36 7t-36.5 -7t-30.5 -19.5
t-20.5 -29.5t-7.5 -36t7.5 -36.5t20.5 -30.5t30.5 -20.5t36.5 -7.5z" />
    <glyph glyph-name="ae" unicode="&#xe6;" horiz-adv-x="926" 
d="M542 353v-30h270v-146h-270v-32h354v-145h-354h-145v20h-171l-16 -20h-181l365 498l3 -2v2h145h354v-145h-354zM397 145v32v79l-79 -111h79z" />
    <glyph glyph-name="ccedilla" unicode="&#xe7;" horiz-adv-x="533" 
d="M278 142q31 0 56 14.5t39 40.5l131 -72q-30 -55 -83 -90t-119 -40l33 -53v-85h-85v85h21l-17 53q-49 4 -91.5 26t-74 56t-49.5 78t-18 94q0 54 20.5 100.5t55.5 81.5t81.5 55t99.5 20q73 0 133.5 -36.5t92.5 -96.5l-131 -72q-14 25 -39 40t-56 15q-22 0 -41.5 -8.5
t-34 -22.5t-23 -34t-8.5 -42t8.5 -41.5t23 -34t34 -23t41.5 -8.5z" />
    <glyph glyph-name="egrave" unicode="&#xe8;" horiz-adv-x="511" 
d="M189 146h300v-145h-300h-145v145v30v146v32v145h145h263v-145h-263v-32h226v-146h-226v-30v0zM419 511l-326 69l9 41l326 -69l-9 -41v0z" />
    <glyph glyph-name="eacute" unicode="&#xe9;" horiz-adv-x="535" 
d="M509 349l-41 4l39 247l39 -7zM186 146v30h226v146h-226v32h263v145h-263h-145v-145v-32v-146v-30v-145h145h300v145h-300v0z" />
    <glyph glyph-name="ecircumflex" unicode="&#xea;" horiz-adv-x="512" 
d="M469 516l-210 94l-211 -94l-18 37l229 101l226 -101zM186 146h300v-145h-300h-145v145v30v146v32v145h145h263v-145h-263v-32h226v-146h-226v-30z" />
    <glyph glyph-name="edieresis" unicode="&#xeb;" horiz-adv-x="510" 
d="M218 581q0 -17 -12 -29.5t-29 -12.5t-29.5 12.5t-12.5 29.5t12.5 29.5t29.5 12.5t29 -12.5t12 -29.5zM385 581q0 -17 -12.5 -29.5t-29.5 -12.5t-29 12.5t-12 29.5t12 29.5t29 12.5t29.5 -12.5t12.5 -29.5zM181 146v30h226v146h-226v32h263v145h-263h-145v-145v-32v-146
v-30v-145h145h300v145h-300z" />
    <glyph glyph-name="igrave" unicode="&#xec;" horiz-adv-x="242" 
d="M181 0h-124v499h124v-499v0zM280 507l-326 69l9 41l326 -69l-9 -41v0z" />
    <glyph glyph-name="iacute" unicode="&#xed;" horiz-adv-x="236" 
d="M157 0h-124v499h124v-499zM218 373l-41 4l39 247l39 -7z" />
    <glyph glyph-name="icircumflex" unicode="&#xee;" horiz-adv-x="197" 
d="M160 0h-124v499h124v-499zM310 507l-210 94l-211 -94l-18 37l229 101l226 -101z" />
    <glyph glyph-name="idieresis" unicode="&#xef;" horiz-adv-x="214" 
d="M64 572q0 -17 -12 -29.5t-29 -12.5t-29.5 12.5t-12.5 29.5t12.5 29.5t29.5 12.5t29 -12.5t12 -29.5zM231 572q0 -17 -12.5 -29.5t-29.5 -12.5t-29 12.5t-12 29.5t12 29.5t29 12.5t29.5 -12.5t12.5 -29.5zM166 0h-124v496h124v-496z" />
    <glyph glyph-name="eth" unicode="&#xf0;" horiz-adv-x="330" 
d="M248 356q61 -107 61 -211q0 -30 -11.5 -56.5t-31 -46t-46.5 -31t-57 -11.5t-57 11.5t-46.5 31t-31 46t-11.5 56.5q0 28 10 52.5t27 43.5t39.5 31.5t48.5 16.5q-13 23 -28 44l-50 -42l-26 32l51 42q-23 23 -46 41l74 102q19 -14 35 -29.5t32 -35.5l46 37l25 -32l-43 -37
q10 -12 19 -26.5t17 -28.5zM163 127q7 0 12.5 5.5t5.5 12.5q0 8 -5.5 13.5t-12.5 5.5t-12.5 -5.5t-5.5 -13.5q0 -7 5.5 -12.5t12.5 -5.5z" />
    <glyph glyph-name="ntilde" unicode="&#xf1;" horiz-adv-x="603" 
d="M415 517q-29 0 -60.5 7.5t-59.5 15.5q-29 9 -55.5 16t-50.5 8t-45 -6.5t-38 -28.5l-28 23q24 28 51.5 38.5t57 10.5t59.5 -7.5t59 -16.5q28 -9 55 -15.5t50.5 -7t44 7.5t37.5 29l30 -25q-23 -28 -50 -38.5t-57 -10.5zM404 498v-281l-208 281h-145v-498h145v270l208 -270
h145v498h-145z" />
    <glyph glyph-name="ograve" unicode="&#xf2;" horiz-adv-x="550" 
d="M274 506q54 0 100.5 -20t81 -54.5t54.5 -81t20 -100.5t-20 -100.5t-54.5 -81t-81 -54.5t-100.5 -20t-100.5 20t-81 54.5t-54.5 81t-20 100.5t20 100.5t54.5 81t81 54.5t100.5 20zM274 143q22 0 42 8.5t34 22.5t22.5 33.5t8.5 42.5q0 22 -8.5 42t-22.5 34t-34 22.5
t-42 8.5q-23 0 -42.5 -8.5t-33.5 -22.5t-22.5 -34t-8.5 -42q0 -23 8.5 -42.5t22.5 -33.5t33.5 -22.5t42.5 -8.5zM432 510l-326 69l9 41l326 -69l-9 -41v0z" />
    <glyph glyph-name="oacute" unicode="&#xf3;" horiz-adv-x="570" 
d="M553 379l-41 4l39 247l39 -7zM276 506q-54 0 -100.5 -20t-81 -54.5t-54.5 -81t-20 -100.5t20 -100.5t54.5 -81t81 -54.5t100.5 -20t100.5 20t81 54.5t54.5 81t20 100.5t-20 100.5t-54.5 81t-81 54.5t-100.5 20zM276 143q-23 0 -42.5 8.5t-33.5 22.5t-22.5 33.5t-8.5 42.5
q0 22 8.5 42t22.5 34t33.5 22.5t42.5 8.5q22 0 42 -8.5t34 -22.5t22.5 -34t8.5 -42q0 -23 -8.5 -42.5t-22.5 -33.5t-34 -22.5t-42 -8.5z" />
    <glyph glyph-name="ocircumflex" unicode="&#xf4;" horiz-adv-x="558" 
d="M492 508l-210 94l-211 -94l-18 37l229 101l226 -101zM281 506q54 0 100.5 -20t81 -54.5t54.5 -81t20 -100.5t-20 -100.5t-54.5 -81t-81 -54.5t-100.5 -20t-100.5 20t-81 54.5t-54.5 81t-20 100.5t20 100.5t54.5 81t81 54.5t100.5 20zM281 143q22 0 42 8.5t34 22.5
t22.5 33.5t8.5 42.5q0 22 -8.5 42t-22.5 34t-34 22.5t-42 8.5q-23 0 -42.5 -8.5t-33.5 -22.5t-22.5 -34t-8.5 -42q0 -23 8.5 -42.5t22.5 -33.5t33.5 -22.5t42.5 -8.5z" />
    <glyph glyph-name="otilde" unicode="&#xf5;" horiz-adv-x="548" 
d="M394 517q-29 0 -60.5 7.5t-59.5 15.5q-29 9 -55.5 16t-50.5 8t-45 -6.5t-38 -28.5l-28 23q24 28 51.5 38.5t57 10.5t59.5 -7.5t59 -16.5q28 -9 55 -15.5t50.5 -7t44 7.5t37.5 29l30 -25q-23 -28 -50 -38.5t-57 -10.5zM273 506q-54 0 -100.5 -20t-81 -54.5t-54.5 -81
t-20 -100.5t20 -100.5t54.5 -81t81 -54.5t100.5 -20t100.5 20t81 54.5t54.5 81t20 100.5t-20 100.5t-54.5 81t-81 54.5t-100.5 20zM273 143q-23 0 -42.5 8.5t-33.5 22.5t-22.5 33.5t-8.5 42.5q0 22 8.5 42t22.5 34t33.5 22.5t42.5 8.5q22 0 42 -8.5t34 -22.5t22.5 -34
t8.5 -42q0 -23 -8.5 -42.5t-22.5 -33.5t-34 -22.5t-42 -8.5z" />
    <glyph glyph-name="odieresis" unicode="&#xf6;" horiz-adv-x="544" 
d="M227 580q0 -17 -12 -29.5t-29 -12.5t-29.5 12.5t-12.5 29.5t12.5 29.5t29.5 12.5t29 -12.5t12 -29.5zM394 580q0 -17 -12.5 -29.5t-29.5 -12.5t-29 12.5t-12 29.5t12 29.5t29 12.5t29.5 -12.5t12.5 -29.5zM272 506q-54 0 -100.5 -20t-81 -54.5t-54.5 -81t-20 -100.5
t20 -100.5t54.5 -81t81 -54.5t100.5 -20t100.5 20t81 54.5t54.5 81t20 100.5t-20 100.5t-54.5 81t-81 54.5t-100.5 20zM272 143q-23 0 -42.5 8.5t-33.5 22.5t-22.5 33.5t-8.5 42.5q0 22 8.5 42t22.5 34t33.5 22.5t42.5 8.5q22 0 42 -8.5t34 -22.5t22.5 -34t8.5 -42
q0 -23 -8.5 -42.5t-22.5 -33.5t-34 -22.5t-42 -8.5z" />
    <glyph glyph-name="divide" unicode="&#xf7;" horiz-adv-x="420" 
d="M396 224h-374v42h374v-42zM266 141q0 -26 -18 -44t-44 -18t-44 18t-18 44t18 44t44 18t44 -18t18 -44zM266 349q0 -26 -18 -44t-44 -18t-44 18t-18 44t18 44t44 18t44 -18t18 -44z" />
    <glyph glyph-name="oslash" unicode="&#xf8;" horiz-adv-x="545" 
d="M403 461q54 -33 86 -89t32 -124q0 -52 -19.5 -97.5t-53.5 -79t-79.5 -53t-97.5 -19.5q-23 0 -43 3t-40 11l-76 -155l-37 18l74 155q-57 33 -91 90.5t-34 126.5q0 52 19.5 97.5t53 79.5t78.5 53.5t96 19.5q26 0 49 -5t46 -14l69 148l37 -18zM167 248q0 -26 13 -48.5
t34 -36.5l87 185q-7 2 -14 3t-16 1q-21 0 -39.5 -8t-33 -22t-23 -33t-8.5 -41zM271 144q22 0 41.5 8t34 22.5t23 33.5t8.5 40q0 25 -11.5 46t-28.5 35l-87 -182q5 -2 10 -2.5t10 -0.5z" />
    <glyph glyph-name="ugrave" unicode="&#xf9;" horiz-adv-x="532" 
d="M507.284 505.943v-271.135q0 -49.3887 -18.6572 -92.7295q-18.6562 -43.3408 -50.9277 -75.5947t-75.6367 -50.9014q-43.3643 -18.6465 -92.7803 -18.6465t-92.7803 18.6465q-43.3652 18.6475 -75.6367 50.9014t-50.9287 75.5947q-18.6562 43.3408 -18.6562 92.7295
v271.135h161.357v-271.135q0 -31.2451 23.1943 -52.916q23.1953 -21.6709 53.4502 -21.6709t53.4492 21.6709q23.1953 21.6709 23.1953 52.916v271.135h161.357zM425 514l-326 69l9 41l326 -69l-9 -41v0z" />
    <glyph glyph-name="uacute" unicode="&#xfa;" horiz-adv-x="526" 
d="M286 387l-41 4l39 247l39 -7zM338 497v-269q0 -31 -23 -52.5t-53 -21.5t-53 21.5t-23 52.5v269h-160v-269q0 -49 18.5 -92t50.5 -75t75 -50.5t92 -18.5t92 18.5t75 50.5t50.5 75t18.5 92v269h-160z" />
    <glyph glyph-name="ucircumflex" unicode="&#xfb;" horiz-adv-x="531" 
d="M476 516l-210 94l-211 -94l-18 37l229 101l226 -101zM502 497v-269q0 -49 -18.5 -92t-50.5 -75t-75 -50.5t-92 -18.5t-92 18.5t-75 50.5t-50.5 75t-18.5 92v269h160v-269q0 -31 23 -52.5t53 -21.5t53 21.5t23 52.5v269h160z" />
    <glyph glyph-name="udieresis" unicode="&#xfc;" horiz-adv-x="537" 
d="M233 589q0 -17 -12 -29.5t-29 -12.5t-29.5 12.5t-12.5 29.5t12.5 29.5t29.5 12.5t29 -12.5t12 -29.5zM400 589q0 -17 -12.5 -29.5t-29.5 -12.5t-29 12.5t-12 29.5t12 29.5t29 12.5t29.5 -12.5t12.5 -29.5zM345 497v-269q0 -31 -23 -52.5t-53 -21.5t-53 21.5t-23 52.5v269
h-160v-269q0 -49 18.5 -92t50.5 -75t75 -50.5t92 -18.5t92 18.5t75 50.5t50.5 75t18.5 92v269h-160z" />
    <glyph glyph-name="yacute" unicode="&#xfd;" horiz-adv-x="549" 
d="M301 439l-41 4l39 247l39 -7zM348 500l-69 -136l-72 136h-169l153 -265l16 -26v-207h134v207l169 291h-162v0z" />
    <glyph glyph-name="thorn" unicode="&#xfe;" horiz-adv-x="434" 
d="M230 450q36 0 68 -15.5t56 -42t37.5 -62.5t13.5 -76q0 -42 -13.5 -78t-37.5 -63t-56 -42.5t-68 -15.5h-54v-104h-145v374v125v104h145v-104h54zM206 180q28 0 46.5 21t18.5 53q0 29 -18.5 51.5t-46.5 22.5h-30v-3v-145h30z" />
    <glyph glyph-name="ydieresis" unicode="&#xff;" horiz-adv-x="549" 
d="M238 590q0 -17 -12 -29.5t-29 -12.5t-29.5 12.5t-12.5 29.5t12.5 29.5t29.5 12.5t29 -12.5t12 -29.5zM405 590q0 -17 -12.5 -29.5t-29.5 -12.5t-29 12.5t-12 29.5t12 29.5t29 12.5t29.5 -12.5t12.5 -29.5zM348 500l-69 -136l-72 136h-169l153 -265l16 -26v-207h134v207
l169 291h-162z" />
    <glyph glyph-name="Amacron" unicode="&#x100;" 
d="M551 528h-451v42h451v-42zM456 0h145l-208 498h-124l-229 -498h145l19 41h233l19 -41v0zM264 166l60 125l55 -125h-115v0z" />
    <glyph glyph-name="amacron" unicode="&#x101;" horiz-adv-x="558" 
d="M504 530h-451v42h451v-42zM376 498v-23q-24 11 -50 17t-54 6q-52 0 -97.5 -19.5t-79 -53t-53 -79t-19.5 -97.5t19.5 -97.5t53 -79t79 -53t97.5 -19.5q28 0 54 5t50 18v-23h145v498h-145zM272 154q-19 0 -36.5 7.5t-30.5 20.5t-20.5 30.5t-7.5 36.5t7.5 36t20.5 29.5
t30.5 19.5t36.5 7t36 -7t29.5 -19.5t19.5 -29.5t7 -36t-7 -36.5t-19.5 -30.5t-29.5 -20.5t-36 -7.5z" />
    <glyph glyph-name="Abreve" unicode="&#x102;" 
d="M94 627l19 39l210 -95l210 95l19 -39l-229 -102zM456 0l-19 41h-233l-19 -41h-145l229 498h124l208 -498h-145zM264 166h115l-55 125z" />
    <glyph glyph-name="abreve" unicode="&#x103;" horiz-adv-x="584" 
d="M92 662l210 -95l210 95l19 -39l-229 -102l-229 102zM538 498v-498h-145v23q-24 -13 -50 -18t-54 -5q-52 0 -97.5 19.5t-79 53t-53 79t-19.5 97.5t19.5 97.5t53 79t79 53t97.5 19.5q28 0 54 -6t50 -17v23h145zM289 154q19 0 36 7.5t29.5 20.5t19.5 30.5t7 36.5t-7 36
t-19.5 29.5t-29.5 19.5t-36 7t-36.5 -7t-30.5 -19.5t-20.5 -29.5t-7.5 -36t7.5 -36.5t20.5 -30.5t30.5 -20.5t36.5 -7.5z" />
    <glyph glyph-name="D-" unicode="&#x110;" horiz-adv-x="568" 
d="M290 497q52 0 97 -19.5t79 -53t53.5 -79t19.5 -97.5t-19.5 -97.5t-53.5 -79t-79 -53t-97 -19.5h-62h-63h-83v228h-62v42h62v228h83h63h62zM290 144q44 0 74 30t30 74t-30 74t-74 30h-62v-83h62v-42h-62v-83h62z" />
    <glyph glyph-name="D-.001" unicode="&#x111;" horiz-adv-x="566" 
d="M290 497q52 0 97 -19.5t79 -53t53.5 -79t19.5 -97.5t-19.5 -97.5t-53.5 -79t-79 -53t-97 -19.5h-62h-63h-83v228h-62v42h62v228h83h63h62zM290 144q44 0 74 30t30 74t-30 74t-74 30h-62v-83h62v-42h-62v-83h62z" />
    <glyph glyph-name="Emacron" unicode="&#x112;" horiz-adv-x="572" 
d="M515 531h-451v42h451v-42zM541 354v145h-353h-145v-145v-32v-144v-32v-145h145h353v145h-353v32h270v144h-270v32h353v0z" />
    <glyph glyph-name="emacron" unicode="&#x113;" horiz-adv-x="514" 
d="M482 520h-451v42h451v-42zM182 146v30h226v146h-226v32h263v145h-263h-145v-145v-32v-146v-30v-145h145h300v145h-300v0z" />
    <glyph glyph-name="Eogonek" unicode="&#x118;" horiz-adv-x="568" 
d="M271 -144v83h21l-21 62h42l42 -62v-83h-84zM535 354h-353v-32h270v-144h-270v-32h353v-145h-353h-145v145v32v144v32v145h145h353v-145z" />
    <glyph glyph-name="eogonek" unicode="&#x119;" horiz-adv-x="504" 
d="M227 -143v83h21l-21 62h42l42 -62v-83h-84zM181 146h300v-145h-300h-145v145v30v146v32v145h145h263v-145h-263v-32h226v-146h-226v-30z" />
    <glyph glyph-name="Hcircumflex" unicode="&#x124;" horiz-adv-x="597" 
d="M507 545l-210 92l-213 -92l-16 37l229 101v0v0v0v0l226 -101zM382 499h146v-175v-146v-177h-146v177h-166v-177h-146v177v146v175h146v-175h166v175z" />
    <glyph glyph-name="hcircumflex" unicode="&#x125;" horiz-adv-x="594" 
d="M505 527l-210 92l-213 -92l-16 37l229 101v0v0v0v0l226 -101zM378 498h146v-175v-146v-177h-146v177h-166v-177h-146v177v146v175h146v-175h166v175z" />
    <glyph glyph-name="Itilde" unicode="&#x128;" horiz-adv-x="196" 
d="M221 532q-29 0 -60.5 7.5t-59.5 15.5q-29 9 -55.5 16t-50.5 8t-45 -6.5t-38 -28.5l-28 23q24 28 51.5 38.5t57 10.5t59.5 -7.5t59 -16.5q28 -9 55 -15.5t50.5 -7t44 7.5t37.5 29l30 -25q-23 -28 -50 -38.5t-57 -10.5zM161 4h-124v498h124v-498z" />
    <glyph glyph-name="itilde" unicode="&#x129;" horiz-adv-x="216" 
d="M230 532q-29 0 -60.5 7.5t-59.5 15.5q-29 9 -55.5 16t-50.5 8t-45 -6.5t-38 -28.5l-28 23q24 28 51.5 38.5t57 10.5t59.5 -7.5t59 -16.5q28 -9 55 -15.5t50.5 -7t44 7.5t37.5 29l30 -25q-23 -28 -50 -38.5t-57 -10.5zM170 4h-124v498h124v-498z" />
    <glyph glyph-name="IJ" unicode="&#x132;" horiz-adv-x="680" 
d="M180 0h-124v498h124v-498v0zM623 499v-354h-2q-3 -32 -17.5 -59.5t-37 -47.5t-52 -31t-62.5 -11q-34 0 -64 12t-53 33t-37 49.5t-17 61.5v50h149v-48q9 -11 22 -11t22 11v345h149z" />
    <glyph glyph-name="ij" unicode="&#x133;" horiz-adv-x="690" 
d="M181 0h-124v499h124v-499zM181 582q0 -26 -18 -44t-44 -18t-44 18t-18 44t18 44.5t44 18.5t44 -18.5t18 -44.5zM633 496v-353h-2q-3 -32 -17.5 -59.5t-37 -47.5t-52 -31.5t-62.5 -11.5q-34 0 -64 12t-52.5 33.5t-37 50t-17.5 61.5v50h149v-48q10 -12 22 -12t22 12v344
h149z" />
    <glyph glyph-name="Ncaron" unicode="&#x147;" horiz-adv-x="606" 
d="M86 666l210 -95l210 95l19 -39l-229 -102l-229 102zM406 498h145v-498h-145l-208 270v-270h-145v498h145l208 -281v281z" />
    <glyph glyph-name="ncaron" unicode="&#x148;" horiz-adv-x="603" 
d="M92 673l210 -95l210 95l19 -39l-229 -102l-229 102zM404 498h145v-498h-145l-208 270v-270h-145v498h145l208 -281v281z" />
    <glyph glyph-name="Omacron" unicode="&#x14c;" horiz-adv-x="533" 
d="M492 516h-451v42h451v-42zM268 508q-54 0 -100.5 -20t-81 -54.5t-54.5 -81t-20 -100.5t20 -100.5t54.5 -81t81 -54.5t100.5 -20t100.5 20t81 54.5t54.5 81t20 100.5t-20 100.5t-54.5 81t-81 54.5t-100.5 20zM268 145q-23 0 -42.5 8.5t-33.5 22.5t-22.5 33.5t-8.5 42.5
q0 22 8.5 42t22.5 34t33.5 22.5t42.5 8.5q22 0 42 -8.5t34 -22.5t22.5 -34t8.5 -42q0 -23 -8.5 -42.5t-22.5 -33.5t-34 -22.5t-42 -8.5z" />
    <glyph glyph-name="omacron" unicode="&#x14d;" horiz-adv-x="498" 
d="M474 1h-451v42h451v-42zM245 503q45 0 84 -16.5t68.5 -46t46 -69t16.5 -84.5t-16.5 -84t-46 -68.5t-68.5 -46t-84 -16.5t-84.5 16.5t-69 46t-46 68.5t-16.5 84t16.5 84.5t46 69t69 46t84.5 16.5zM245 197q38 0 64 26t26 64q0 19 -7 35.5t-19 29t-28.5 19.5t-35.5 7
q-38 0 -64 -26.5t-26 -64.5q0 -19 7 -35.5t19 -28.5t28.5 -19t35.5 -7z" />
    <glyph glyph-name="OE" unicode="&#x152;" horiz-adv-x="902" 
d="M521 355v-30h271v-146h-271v-32h354v-145h-354h-21h-124h-125q-48 4 -89.5 25.5t-72.5 55t-49 77t-18 91.5q0 49 18 93t49 77t72.5 54t89.5 25h125h124h21h354v-145h-354zM168 251q0 -44 30 -74t74 -30t74 30t30 74t-30 74t-74 30t-74 -30t-30 -74z" />
    <glyph glyph-name="oe" unicode="&#x153;" horiz-adv-x="837" 
d="M819 144v-145h-301h-20h-125h-125q-48 4 -89.5 25t-72.5 54t-49 76.5t-18 93.5q0 49 18 93t49 77t72.5 54t89.5 25h125h125h20h264v-145h-264v-32h227v-146h-227v-30h301zM165 248q0 -44 30 -74t74 -30t74 30t30 74t-30 74t-74 30t-74 -30t-30 -74z" />
    <glyph glyph-name="Scircumflex" unicode="&#x15c;" horiz-adv-x="440" 
d="M431 523l-210 92l-213 -92l-16 37l229 101l226 -101zM233 315q33 0 62 -12t50.5 -33.5t34 -50t12.5 -61.5t-12.5 -62t-34 -50.5t-50.5 -34t-62 -12.5h-164v136h164q8 0 15.5 6t7.5 17q0 8 -7.5 14.5t-15.5 6.5h-21q-33 0 -62 12.5t-50.5 34t-34 50.5t-12.5 62t12.5 62
t34 50.5t50.5 34t62 12.5h166v-136h-166q-8 0 -15.5 -6t-7.5 -17q0 -8 7.5 -15.5t15.5 -7.5h21z" />
    <glyph glyph-name="scircumflex" unicode="&#x15d;" horiz-adv-x="440" 
d="M434 526l-210 92l-213 -92l-16 37l229 101l226 -101zM235 320q33 0 62 -12.5t50.5 -34t34 -50.5t12.5 -62t-12.5 -62t-34 -50.5t-50.5 -34t-62 -12.5h-164v136h164q8 0 15.5 6t7.5 17q0 8 -7.5 15.5t-15.5 7.5h-21q-33 0 -62 12t-50.5 33.5t-34 50t-12.5 61.5t12.5 62
t34 50.5t50.5 34t62 12.5h166v-136h-166q-8 0 -15.5 -6t-7.5 -17q0 -8 7.5 -14.5t15.5 -6.5h21z" />
    <glyph glyph-name="Scaron" unicode="&#x160;" horiz-adv-x="440" 
d="M13 664l210 -95l210 95l19 -39l-229 -102l-229 102zM233 315q33 0 62 -12t50.5 -33.5t34 -50t12.5 -61.5t-12.5 -62t-34 -50.5t-50.5 -34t-62 -12.5h-164v136h164q8 0 15.5 6t7.5 17q0 8 -7.5 14.5t-15.5 6.5h-21q-33 0 -62 12.5t-50.5 34t-34 50.5t-12.5 62t12.5 62
t34 50.5t50.5 34t62 12.5h166v-136h-166q-8 0 -15.5 -6t-7.5 -17q0 -8 7.5 -15.5t15.5 -7.5h21z" />
    <glyph glyph-name="scaron" unicode="&#x161;" horiz-adv-x="440" 
d="M12 662l210 -95l210 95l19 -39l-229 -102l-229 102zM235 320q33 0 62 -12.5t50.5 -34t34 -50.5t12.5 -62t-12.5 -62t-34 -50.5t-50.5 -34t-62 -12.5h-164v136h164q8 0 15.5 6t7.5 17q0 8 -7.5 15.5t-15.5 7.5h-21q-33 0 -62 12t-50.5 33.5t-34 50t-12.5 61.5t12.5 62
t34 50.5t50.5 34t62 12.5h166v-136h-166q-8 0 -15.5 -6t-7.5 -17q0 -8 7.5 -14.5t15.5 -6.5h21z" />
    <glyph glyph-name="U~" unicode="&#x168;" horiz-adv-x="521" 
d="M374 519q-29 0 -60 7t-60 16t-55.5 16t-50 7.5t-44 -7t-37.5 -28.5l-30 23q23 28 50.5 38.5t57.5 10.5t60.5 -7t59.5 -16t55.5 -15.5t50 -7t44 7.5t37.5 29l30 -26q-24 -28 -51.5 -38t-56.5 -10zM332 500v-272q0 -30 -21 -51t-53 -21q-29 0 -50 21t-21 51v272h-157v-272
q0 -48 18 -90t49.5 -72.5t72.5 -48.5t88 -18q48 0 90 18t73.5 48.5t49.5 72.5t18 90v272h-157z" />
    <glyph glyph-name="utilde" unicode="&#x169;" horiz-adv-x="514" 
d="M374 519q-29 0 -60 7t-60 16t-55.5 16t-50 7.5t-44 -7t-37.5 -28.5l-30 23q23 28 50.5 38.5t57.5 10.5t60.5 -7t59.5 -16t55.5 -15.5t50 -7t44 7.5t37.5 29l30 -26q-24 -28 -51.5 -38t-56.5 -10zM332 500v-272q0 -30 -21 -51t-53 -21q-29 0 -50 21t-21 51v272h-157v-272
q0 -48 18 -90t49.5 -72.5t72.5 -48.5t88 -18q48 0 90 18t73.5 48.5t49.5 72.5t18 90v272h-157z" />
    <glyph glyph-name="Umacron" unicode="&#x16a;" horiz-adv-x="524" 
d="M487 526h-451v42h451v-42zM338 497v-269q0 -31 -23 -52.5t-53 -21.5t-53 21.5t-23 52.5v269h-160v-269q0 -49 18.5 -92t50.5 -75t75 -50.5t92 -18.5t92 18.5t75 50.5t50.5 75t18.5 92v269h-160z" />
    <glyph glyph-name="umacron" unicode="&#x16b;" horiz-adv-x="534" 
d="M493 0h-451v42h451v-42zM504 502v-196q0 -49 -18.5 -92t-50.5 -75t-75 -50.5t-92 -18.5t-92 18.5t-75 50.5t-50.5 75t-18.5 92v196h160v-196q0 -31 23 -52.5t53 -21.5t53 21.5t23 52.5v196h160z" />
    <glyph glyph-name="Wcircumflex" unicode="&#x174;" horiz-adv-x="580" 
d="M503 544l-210 92l-213 -92l-16 37l229 101v0v0v0v0l226 -101zM404 502h136v-339v0l-159 -159l-90 90l-92 -90l-157 159v339h136v-339l23 -19l23 19v0v0v339h134v-339l23 -19l23 19v339z" />
    <glyph glyph-name="wcircumflex" unicode="&#x175;" horiz-adv-x="567" 
d="M490 540l-210 92l-213 -92l-16 37l229 101v0v0v0v0l226 -101zM34 498h134l21 -291l94 109l93 -109l18 291h134l-34 -498h-141l-70 115l-71 -115h-144z" />
    <glyph glyph-name="Ycircumflex" unicode="&#x176;" horiz-adv-x="554" 
d="M490 563l-210 92l-213 -92l-16 37l229 101v0v0v0v0l226 -101zM344 498h169l-289 -498h-162l132 233l-153 265h178l60 -113z" />
    <glyph glyph-name="ycircumflex" unicode="&#x177;" horiz-adv-x="549" 
d="M490 547l-210 92l-213 -92l-16 37l229 101v0v0v0v0l226 -101zM348 500h162l-169 -291v-207h-134v207l-16 26l-153 265h169l72 -136z" />
    <glyph glyph-name="Ydieresis" unicode="&#x178;" horiz-adv-x="554" 
d="M344 498h169l-289 -498h-162l132 233l-153 265h178l60 -113l65 113v0zM235 582q0 -17 -12 -29.5t-29 -12.5t-29.5 12.5t-12.5 29.5t12.5 29.5t29.5 12.5t29 -12.5t12 -29.5zM402 582q0 -17 -12.5 -29.5t-29.5 -12.5t-29 12.5t-12 29.5t12 29.5t29 12.5t29.5 -12.5
t12.5 -29.5z" />
    <glyph glyph-name="Zcaron" unicode="&#x17d;" horiz-adv-x="580" 
d="M64 674l210 -95l210 95l19 -39l-229 -102l-229 102zM55 498h458v-145l-229 -208h229v-145h-458v145l271 208h-271v145z" />
    <glyph glyph-name="zcaron" unicode="&#x17e;" horiz-adv-x="588" 
d="M83 664l210 -95l210 95l19 -39l-229 -102l-229 102zM63 498h458v-145l-229 -208h229v-145h-458v145l271 208h-271v145z" />
    <glyph glyph-name="AEacute" unicode="&#x1fc;" horiz-adv-x="969" 
d="M896 353h-354v-30h270v-146h-270v-32h354v-145h-354h-145v20h-171l-16 -20h-181l365 498l3 -2v2h145h354v-145zM318 145h79v32v79zM951 393l-41 7l37 247l41 -7l-37 -247v0z" />
    <glyph glyph-name="aeacute" unicode="&#x1fd;" horiz-adv-x="975" 
d="M542 353v-30h270v-146h-270v-32h354v-145h-354h-145v20h-171l-16 -20h-181l365 498l3 -2v2h145h354v-145h-354zM397 145v32v79l-79 -111h79zM952 391l-41 7l37 247l41 -7l-37 -247v0z" />
    <glyph glyph-name="breve" unicode="&#x2d8;" horiz-adv-x="525" 
d="M50 669l210 -95l210 95l19 -39l-229 -102l-229 102z" />
  </font>
</defs>
</svg>
